<svg width="22" height="22" viewBox="0 0 22 22" fill="none" xmlns="http://www.w3.org/2000/svg">
<path d="M11 0C8.01487 0 7.6395 0.0131542 6.46663 0.0631401C5.29375 0.115757 4.49488 0.292023 3.795 0.552476C3.06054 0.815988 2.39544 1.23044 1.84663 1.76661C1.28617 2.29164 0.852948 2.92792 0.5775 3.63055C0.30525 4.29879 0.119625 5.06436 0.066 6.18247C0.01375 7.30715 0 7.66494 0 10.5247C0 13.3818 0.01375 13.7395 0.066 14.8616C0.121 15.9823 0.30525 16.7466 0.5775 17.4161C0.859375 18.108 1.23475 18.6947 1.84663 19.2801C2.45713 19.8654 3.07038 20.2259 3.79363 20.4942C4.49488 20.7547 5.29238 20.9323 6.46388 20.9836C7.63813 21.0335 8.01212 21.0467 11 21.0467C13.9879 21.0467 14.3605 21.0335 15.5347 20.9836C16.7049 20.9309 17.5065 20.7547 18.2064 20.4942C18.9403 20.2305 19.605 19.8161 20.1534 19.2801C20.7652 18.6947 21.1406 18.108 21.4225 17.4161C21.6934 16.7466 21.879 15.9823 21.934 14.8616C21.9863 13.7395 22 13.3818 22 10.5233C22 7.66494 21.9863 7.30715 21.934 6.18378C21.879 5.06436 21.6934 4.29879 21.4225 3.63055C21.1471 2.92792 20.7138 2.29164 20.1534 1.76661C19.6046 1.23044 18.9395 0.815988 18.205 0.552476C17.5037 0.292023 16.7035 0.114441 15.5334 0.0631401C14.3591 0.0131542 13.9865 0 10.9973 0H11ZM10.0141 1.89683H11.0014C13.9384 1.89683 14.2862 1.90604 15.4454 1.95734C16.5179 2.00338 17.1009 2.1757 17.4886 2.31908C18.0015 2.50982 18.3686 2.7387 18.7536 3.10702C19.1386 3.47534 19.3765 3.82524 19.5759 4.3172C19.7271 4.68684 19.9059 5.24457 19.954 6.2706C20.0076 7.3795 20.0186 7.7123 20.0186 10.5207C20.0186 13.3291 20.0076 13.6633 19.954 14.7721C19.9059 15.7982 19.7258 16.3546 19.5759 16.7255C19.3983 17.1819 19.117 17.5948 18.7522 17.9344C18.3672 18.3027 18.0015 18.5303 17.4873 18.721C17.1023 18.8657 16.5192 19.0367 15.4454 19.0841C14.2862 19.1341 13.9384 19.1459 11.0014 19.1459C8.06438 19.1459 7.71513 19.1341 6.556 19.0841C5.4835 19.0367 4.90187 18.8657 4.51412 18.721C4.03677 18.5517 3.6047 18.283 3.24913 17.9344C2.88375 17.5945 2.60195 17.1811 2.42412 16.7242C2.27425 16.3546 2.09413 15.7969 2.046 14.7708C1.99375 13.6619 1.98275 13.3291 1.98275 10.5181C1.98275 7.70704 1.99375 7.37687 2.046 6.26797C2.0955 5.24194 2.27425 4.68421 2.4255 4.31326C2.62488 3.82261 2.86413 3.47139 3.24913 3.10307C3.63412 2.73475 3.99987 2.50719 4.51412 2.31645C4.90187 2.17176 5.4835 2.00075 6.556 1.9534C7.57075 1.90867 7.964 1.89552 10.0141 1.8942V1.89683ZM16.8726 3.64371C16.6993 3.64371 16.5276 3.67637 16.3675 3.73983C16.2073 3.8033 16.0618 3.89631 15.9392 4.01358C15.8167 4.13084 15.7194 4.27005 15.6531 4.42326C15.5868 4.57647 15.5526 4.74068 15.5526 4.90651C15.5526 5.07234 15.5868 5.23655 15.6531 5.38976C15.7194 5.54297 15.8167 5.68218 15.9392 5.79945C16.0618 5.91671 16.2073 6.00973 16.3675 6.07319C16.5276 6.13665 16.6993 6.16931 16.8726 6.16931C17.2227 6.16931 17.5585 6.03627 17.806 5.79945C18.0536 5.56263 18.1926 5.24143 18.1926 4.90651C18.1926 4.57159 18.0536 4.2504 17.806 4.01358C17.5585 3.77675 17.2227 3.64371 16.8726 3.64371ZM11.0014 5.11961C10.2521 5.10843 9.50798 5.23995 8.81234 5.50653C8.11671 5.7731 7.48346 6.16941 6.94946 6.67236C6.41546 7.17531 5.99138 7.77487 5.70191 8.43612C5.41244 9.09737 5.26336 9.80711 5.26336 10.524C5.26336 11.2409 5.41244 11.9506 5.70191 12.6119C5.99138 13.2731 6.41546 13.8727 6.94946 14.3757C7.48346 14.8786 8.11671 15.2749 8.81234 15.5415C9.50798 15.8081 10.2521 15.9396 11.0014 15.9284C12.4844 15.9063 13.8988 15.3271 14.9393 14.316C15.9799 13.3049 16.5631 11.9429 16.5631 10.524C16.5631 9.1051 15.9799 7.7431 14.9393 6.73198C13.8988 5.72087 12.4844 5.14174 11.0014 5.11961ZM11.0014 7.01513C11.4829 7.01513 11.9598 7.10587 12.4047 7.28217C12.8496 7.45848 13.2539 7.71689 13.5944 8.04266C13.9349 8.36843 14.2051 8.75517 14.3894 9.18081C14.5736 9.60645 14.6685 10.0626 14.6685 10.5233C14.6685 10.9841 14.5736 11.4402 14.3894 11.8659C14.2051 12.2915 13.9349 12.6783 13.5944 13.004C13.2539 13.3298 12.8496 13.5882 12.4047 13.7645C11.9598 13.9408 11.4829 14.0316 11.0014 14.0316C10.0288 14.0316 9.09605 13.662 8.40833 13.004C7.72061 12.3461 7.33425 11.4538 7.33425 10.5233C7.33425 9.59291 7.72061 8.70058 8.40833 8.04266C9.09605 7.38474 10.0288 7.01513 11.0014 7.01513Z" fill="#E4E3E3"/>
</svg>
