<svg width="22" height="22" viewBox="0 0 22 22" fill="none" xmlns="http://www.w3.org/2000/svg">
<path d="M0 1.50747C0 0.67481 0.72325 0 1.61562 0H20.3844C21.2768 0 22 0.67481 22 1.50747V19.5392C22 20.3719 21.2768 21.0467 20.3844 21.0467H1.61562C0.72325 21.0467 0 20.3719 0 19.5392V1.50747ZM6.79662 17.6187V8.11482H3.49525V17.6187H6.79662ZM5.14663 6.8165C6.2975 6.8165 7.01388 6.08776 7.01388 5.17486C6.99325 4.24222 6.29888 3.53321 5.16862 3.53321C4.03837 3.53321 3.3 4.24354 3.3 5.17486C3.3 6.08776 4.01638 6.8165 5.12463 6.8165H5.14663ZM11.8951 17.6187V12.311C11.8951 12.0269 11.9171 11.7427 12.0051 11.5402C12.243 10.9732 12.7861 10.3852 13.6991 10.3852C14.894 10.3852 15.3711 11.256 15.3711 12.5346V17.6187H18.6725V12.1676C18.6725 9.24739 17.0445 7.88988 14.872 7.88988C13.1202 7.88988 12.3351 8.81067 11.8951 9.45917V9.49206H11.8731L11.8951 9.45917V8.11482H8.59513C8.63637 9.00667 8.59513 17.6187 8.59513 17.6187H11.8951Z" fill="#E4E3E3"/>
</svg>
