<svg width="24" height="21" viewBox="0 0 24 21" fill="none" xmlns="http://www.w3.org/2000/svg">
<path d="M7.539 21C16.596 21 21.5505 12.9187 21.5505 5.9228C21.5525 5.69558 21.5495 5.46837 21.5415 5.24115C22.5058 4.48881 23.3382 3.55793 24 2.49191C23.0987 2.91879 22.144 3.20071 21.1665 3.32863C22.1964 2.66589 22.9677 1.6229 23.337 0.393637C22.3699 1.01185 21.3108 1.44521 20.2065 1.67457C19.4643 0.823345 18.4821 0.259434 17.4121 0.0701857C16.3421 -0.119063 15.2441 0.0769118 14.288 0.627754C13.3319 1.1786 12.5712 2.05356 12.1237 3.11713C11.6761 4.18069 11.5668 5.37349 11.8125 6.51077C9.85451 6.40555 7.93897 5.85805 6.19024 4.90382C4.44152 3.94958 2.89871 2.60995 1.662 0.971914C1.03437 2.14 0.842925 3.52148 1.12651 4.836C1.4101 6.15053 2.14747 7.29964 3.189 8.05015C2.40811 8.02298 1.64429 7.79714 0.96 7.39111V7.4638C0.961909 8.68719 1.35573 9.87242 2.07498 10.8194C2.79424 11.7664 3.79488 12.4172 4.908 12.6618C4.48541 12.7873 4.04885 12.8498 3.6105 12.8476C3.30138 12.851 2.99275 12.8202 2.6895 12.7555C3.00359 13.8092 3.61616 14.7305 4.44125 15.3901C5.26634 16.0498 6.26253 16.4146 7.29 16.4336C5.54415 17.9083 3.38887 18.7087 1.17 18.7063C0.778948 18.7094 0.388119 18.6852 0 18.6336C2.25213 20.1802 4.8679 21.0012 7.539 21Z" fill="#E4E3E3"/>
</svg>
