<svg width="441" height="441" viewBox="0 0 441 441" fill="none" xmlns="http://www.w3.org/2000/svg">
<path d="M216.517 285.694C240.727 285.694 261.608 278.407 279.16 263.835C296.712 249.262 305.488 231.446 305.488 210.386C305.488 192.491 299.444 177.221 287.356 164.576C275.268 151.931 260.212 145.608 242.189 145.608C227.024 145.608 213.936 150.231 202.924 159.475C191.912 168.72 186.405 179.955 186.405 193.181C186.405 199.041 187.708 204.698 190.315 210.151C192.92 215.604 196.611 220.759 201.386 225.617L221.611 208.647C218.618 206.578 216.374 204.306 214.878 201.83C213.382 199.355 212.633 196.675 212.633 193.792C212.633 188.057 215.189 182.768 220.3 177.927C225.41 173.085 232.707 170.664 242.189 170.664C252.276 170.664 261.002 174.338 268.366 181.687C275.73 189.036 279.412 198.806 279.412 210.997C279.412 224.567 273.587 236.358 261.936 246.371C250.285 256.383 235.364 261.39 217.173 261.39C196.291 261.39 178.327 253.649 163.28 238.168C148.233 222.686 140.709 203.272 140.709 179.924C140.709 168.11 143.198 156.726 148.174 145.772C153.151 134.819 160.346 124.955 169.762 116.181L150.545 98.7402C138.911 109.49 129.882 121.806 123.46 135.689C117.038 149.572 113.826 164.114 113.826 179.313C113.826 208.584 123.712 233.632 143.484 254.456C163.255 275.281 187.6 285.694 216.517 285.694ZM79.1762 440.681V348.732C54.2602 327.547 34.9175 303.737 21.1482 277.303C7.37882 250.868 0.494141 223.689 0.494141 195.766C0.494141 141.55 20.9211 95.4813 61.775 57.5611C102.629 19.6408 152.142 0.680664 210.313 0.680664C257.556 0.680664 300.251 14.0858 338.398 40.8961C376.546 67.7067 401.285 102.329 412.617 144.762L439.651 245.125C441.5 251.299 440.307 256.917 436.07 261.978C431.833 267.039 426.185 269.57 419.123 269.57H367.677V352.305C367.677 363.242 363.55 372.558 355.295 380.252C347.04 387.945 337.045 391.792 325.31 391.792H262.768V440.681H236.54V367.347H325.31C330.017 367.347 333.884 365.937 336.91 363.117C339.937 360.296 341.45 356.692 341.45 352.305V245.125H412.264L387.348 150.403C377.294 113.016 355.707 82.7889 322.586 59.7232C289.466 36.6578 252.042 25.1251 210.313 25.1251C159.607 25.1251 116.332 41.7035 80.4875 74.8604C44.6435 108.017 26.7215 148.225 26.7215 195.484C26.7215 219.928 32.0762 243.072 42.7857 264.916C53.4952 286.759 68.6853 306.236 88.3558 323.347L105.404 338.014V440.681H79.1762Z" fill="#DFDFDF"/>
</svg>
