<svg width="500" height="500" viewBox="0 0 500 500" fill="none" xmlns="http://www.w3.org/2000/svg">
<g clip-path="url(#clip0_6259_24)">
<path d="M245.481 323.878C272.991 323.878 296.72 315.599 316.665 299.039C336.611 282.479 346.584 262.233 346.584 238.301C346.584 217.967 339.716 200.614 325.979 186.244C312.243 171.875 295.134 164.69 274.653 164.69C257.421 164.69 242.548 169.943 230.034 180.449C217.52 190.954 211.263 203.721 211.263 218.75C211.263 225.41 212.744 231.838 215.705 238.034C218.666 244.231 222.86 250.089 228.286 255.609L251.269 236.325C247.869 233.975 245.318 231.393 243.618 228.579C241.917 225.766 241.067 222.721 241.067 219.444C241.067 212.927 243.971 206.918 249.779 201.416C255.587 195.914 263.878 193.163 274.653 193.163C286.116 193.163 296.032 197.338 304.4 205.689C312.768 214.04 316.952 225.143 316.952 238.996C316.952 254.416 310.332 267.815 297.093 279.193C283.853 290.571 266.897 296.26 246.226 296.26C222.497 296.26 202.083 287.464 184.984 269.872C167.885 252.279 159.336 230.217 159.336 203.686C159.336 190.26 162.163 177.324 167.819 164.877C173.473 152.43 181.65 141.221 192.349 131.25L170.512 111.431C157.292 123.647 147.032 137.642 139.734 153.419C132.436 169.195 128.787 185.719 128.787 202.992C128.787 236.254 140.021 264.717 162.488 288.381C184.956 312.046 212.62 323.878 245.481 323.878ZM89.4114 500V395.513C61.0978 371.439 39.1175 344.382 23.4705 314.343C7.8235 284.304 0 253.419 0 221.688C0 160.078 23.2124 107.728 69.6373 64.6368C116.063 21.5456 172.327 0 238.43 0C292.116 0 340.633 15.2331 383.982 45.6993C427.331 76.166 455.445 115.509 468.321 163.728L499.042 277.778C501.144 284.794 499.787 291.177 494.973 296.929C490.158 302.68 483.739 305.556 475.715 305.556H417.253V399.573C417.253 412.002 412.563 422.588 403.183 431.331C393.802 440.073 382.444 444.444 369.109 444.444H298.038V500H268.234V416.667H369.109C374.458 416.667 378.852 415.064 382.291 411.859C385.73 408.654 387.449 404.559 387.449 399.573V277.778H467.92L439.606 170.139C428.181 127.653 403.651 93.3049 366.014 67.0937C328.377 40.8831 285.849 27.7778 238.43 27.7778C180.81 27.7778 131.633 46.6169 90.9016 84.2952C50.1697 121.973 29.8038 167.664 29.8038 221.367C29.8038 249.145 35.8887 275.445 48.0586 300.267C60.2285 325.089 77.4899 347.222 99.8428 366.667L119.215 383.333V500H89.4114Z" fill="#DFDFDF"/>
</g>
<defs>
<clipPath id="clip0_6259_24">
<rect width="500" height="500" fill="white"/>
</clipPath>
</defs>
</svg>
