<svg width="440" height="464" viewBox="0 0 440 464" fill="none" xmlns="http://www.w3.org/2000/svg">
<path d="M220 463.286C189.115 440.966 155.005 423.35 117.668 410.439C80.3316 397.529 41.1088 389.823 0 387.322V159.431C42.0608 161.619 82.0238 170.52 119.889 186.135C157.755 201.749 191.125 221.077 220 244.116C248.875 221.077 282.245 201.749 320.11 186.135C357.976 170.52 397.939 161.619 440 159.431V387.322C398.785 389.823 359.536 397.529 322.253 410.439C284.969 423.35 250.885 440.966 220 463.286ZM220 432.713C248.875 413.925 279.583 398.774 312.125 387.26C344.667 375.747 378.125 368.14 412.5 364.439V186.815C376.574 192.098 342.278 202.375 309.613 217.646C276.948 232.917 247.077 252.557 220 276.565C192.923 252.557 163.052 232.917 130.387 217.646C97.7222 202.375 63.4265 192.098 27.5 186.815V364.439C61.875 368.14 95.3333 375.747 127.875 387.26C160.417 398.774 191.125 413.925 220 432.713ZM220 157.555C195.567 157.555 174.651 149.841 157.253 134.414C139.853 118.987 131.154 100.441 131.154 78.7775C131.154 57.1136 139.853 38.5681 157.253 23.1411C174.651 7.71373 195.567 0 220 0C244.433 0 265.349 7.71373 282.747 23.1411C300.147 38.5681 308.846 57.1136 308.846 78.7775C308.846 100.441 300.147 118.987 282.747 134.414C265.349 149.841 244.433 157.555 220 157.555ZM220.019 133.171C236.894 133.171 251.334 127.844 263.339 117.188C275.344 106.533 281.346 93.7239 281.346 78.761C281.346 63.7981 275.338 50.9945 263.32 40.3503C251.303 29.7057 236.857 24.3834 219.981 24.3834C203.106 24.3834 188.666 29.7113 176.661 40.3668C164.656 51.022 158.654 63.831 158.654 78.7939C158.654 93.7568 164.662 106.561 176.68 117.205C188.697 127.849 203.143 133.171 220.019 133.171Z" fill="#DFDFDF"/>
</svg>
