<svg width="500" height="500" viewBox="0 0 500 500" fill="none" xmlns="http://www.w3.org/2000/svg">
<path d="M250.5 500C217.158 475.911 180.335 456.899 140.028 442.965C99.7216 429.031 57.3789 420.715 13 418.016V172.065C58.4065 174.426 101.548 184.033 142.426 200.885C183.303 217.737 219.328 238.596 250.5 263.462C281.672 238.596 317.696 217.737 358.574 200.885C399.451 184.033 442.593 174.426 488 172.065V418.016C443.507 420.715 401.136 429.031 360.886 442.965C320.637 456.899 283.842 475.911 250.5 500ZM250.5 467.004C281.672 446.727 314.823 430.376 349.953 417.949C385.083 405.524 421.203 397.314 458.312 393.32V201.62C419.528 207.321 382.505 218.413 347.241 234.894C311.978 251.375 279.731 272.571 250.5 298.482C221.269 272.571 189.022 251.375 153.759 234.894C118.496 218.413 81.4717 207.321 42.6875 201.62V393.32C79.7969 397.314 115.917 405.524 151.047 417.949C186.177 430.376 219.328 446.727 250.5 467.004ZM250.5 170.041C224.124 170.041 201.544 161.716 182.761 145.066C163.978 128.416 154.586 108.401 154.586 85.0203C154.586 61.6396 163.978 41.6245 182.761 24.975C201.544 8.32501 224.124 0 250.5 0C276.876 0 299.456 8.32501 318.239 24.975C337.022 41.6245 346.414 61.6396 346.414 85.0203C346.414 108.401 337.022 128.416 318.239 145.066C299.456 161.716 276.876 170.041 250.5 170.041ZM250.52 143.725C268.738 143.725 284.326 137.975 297.286 126.475C310.246 114.975 316.726 101.151 316.726 85.0025C316.726 68.8538 310.239 55.0357 297.266 43.548C284.293 32.0598 268.698 26.3158 250.48 26.3158C232.262 26.3158 216.674 32.0658 203.714 43.5658C190.754 55.0653 184.274 68.8894 184.274 85.038C184.274 101.187 190.761 115.005 203.734 126.493C216.707 137.981 232.302 143.725 250.52 143.725Z" fill="#DFDFDF"/>
</svg>
