<svg width="500" height="500" viewBox="0 0 500 500" fill="none" xmlns="http://www.w3.org/2000/svg">
<path d="M253.121 450C223.181 447.172 193.402 440.443 163.784 429.815C134.165 419.186 107.467 404.128 83.6897 384.642C59.912 365.155 40.4046 340.783 25.1673 311.527C9.9296 282.271 1.71181 247.643 0.513943 207.641L0 188.482L22.8993 188.901C44.0182 189.32 67.6388 193.06 93.761 200.123C119.883 207.186 142.483 216.251 161.56 227.317C164.515 197.392 174.007 166.23 190.037 133.832C206.067 101.434 225.554 73.823 248.5 51C271.446 73.823 290.933 101.503 306.963 134.041C322.993 166.579 332.485 197.81 335.44 227.736C354.004 217.479 376.175 208.546 401.955 200.939C427.735 193.332 451.613 189.32 473.587 188.901L497 188.482L496.486 208.059C495.802 244.155 488.968 276.098 475.984 303.89C463 331.681 445.589 355.482 423.751 375.295C401.913 395.107 376.384 411.174 347.165 423.496C317.945 435.818 286.597 444.653 253.121 450ZM255.552 422.214C250.657 358.476 227.783 310.215 186.929 277.432C146.076 244.649 95.3008 224.401 34.6046 216.687C39.8641 282.536 63.6256 331.686 105.889 364.135C148.152 396.584 198.039 415.944 255.552 422.214ZM248.226 300.69C254.262 291.372 262.38 281.549 272.58 271.222C282.78 260.895 292.861 252.24 302.821 245.255C303.78 221.83 299.202 197.709 289.087 172.894C278.972 148.078 265.443 123.339 248.5 98.6773C231.557 123.339 218.028 148.078 207.913 172.894C197.798 197.709 193.22 221.83 194.179 245.255C204.139 252.24 214.052 260.918 223.915 271.292C233.779 281.665 241.882 291.465 248.226 300.69ZM289.095 414.04C309.952 408.06 330.329 400.179 350.228 390.396C370.126 380.613 388.011 367.975 403.882 352.482C419.752 336.989 432.987 318.107 443.587 295.834C454.186 273.562 460.456 247.18 462.395 216.687C417.236 222.211 377.263 235.198 342.475 255.647C307.686 276.097 282.409 301.209 266.641 330.985C271.981 343.708 276.502 356.509 280.204 369.389C283.906 382.268 286.87 397.152 289.095 414.04Z" fill="#DFDFDF"/>
</svg>
