<svg width="440" height="354" viewBox="0 0 440 354" fill="none" xmlns="http://www.w3.org/2000/svg">
<path d="M224.091 353.333C197.585 350.829 171.221 344.871 145 335.458C118.778 326.046 95.1417 312.712 74.0915 295.455C53.0408 278.199 35.7706 256.617 22.2809 230.709C8.79079 204.802 1.51549 174.136 0.455 138.713L0 121.747L20.273 122.118C38.9698 122.489 59.8814 125.801 83.0077 132.056C106.134 138.31 126.142 146.338 143.031 156.137C145.647 129.637 154.051 102.041 168.242 73.3514C182.433 44.6613 199.686 20.2109 220 0C240.314 20.2109 257.567 44.7232 271.758 73.5369C285.949 102.35 294.353 130.007 296.969 156.508C313.404 147.425 333.033 139.515 355.856 132.778C378.679 126.042 399.818 122.489 419.273 122.118L440 121.747L439.545 139.083C438.939 171.048 432.889 199.335 421.394 223.946C409.899 248.556 394.485 269.634 375.152 287.178C355.818 304.723 333.218 318.951 307.349 329.863C281.48 340.775 253.728 348.598 224.091 353.333ZM226.243 328.728C221.91 272.284 201.659 229.547 165.491 200.516C129.323 171.485 84.371 153.554 30.6358 146.723C35.2922 205.036 56.3285 248.56 93.7446 277.296C131.16 306.031 175.326 323.175 226.243 328.728ZM219.758 221.112C225.101 212.861 232.288 204.162 241.318 195.017C250.349 185.872 259.273 178.207 268.091 172.022C268.94 151.278 264.887 129.918 255.932 107.943C246.977 85.9674 235 64.06 220 42.2205C205 64.06 193.022 85.9674 184.068 107.943C175.113 129.918 171.06 151.278 171.909 172.022C180.727 178.207 189.502 185.893 198.235 195.079C206.967 204.265 214.141 212.943 219.758 221.112ZM255.939 321.489C274.404 316.194 292.445 309.215 310.061 300.551C327.677 291.888 343.511 280.696 357.561 266.977C371.612 253.257 383.329 236.535 392.713 216.812C402.097 197.089 407.647 173.726 409.364 146.723C369.384 151.615 333.995 163.116 303.197 181.225C272.398 199.334 250.02 221.572 236.06 247.94C240.788 259.207 244.79 270.543 248.068 281.948C251.346 293.354 253.97 306.534 255.939 321.489Z" fill="#DFDFDF"/>
</svg>
